<svg width="18" height="18" viewBox="0 0 18 18" fill="none" xmlns="http://www.w3.org/2000/svg">
<path d="M9.99774 9.99745L16.0718 10.0045C16.3381 10.0045 16.5935 9.89874 16.7818 9.71043C16.9701 9.52213 17.0759 9.26674 17.0759 9.00043C17.0759 8.73413 16.9701 8.47874 16.7818 8.29043C16.5935 8.10213 16.3381 7.99634 16.0718 7.99634L9.99774 8.00341L10.0048 1.92937C10.0048 1.66306 9.89902 1.40767 9.71072 1.21937C9.52241 1.03106 9.26702 0.925275 9.00072 0.925275C8.73442 0.925275 8.47902 1.03106 8.29072 1.21937C8.10241 1.40767 7.99663 1.66306 7.99663 1.92937L8.0037 8.00341L1.92965 7.99634C1.79764 7.9958 1.66683 8.0214 1.54476 8.07167C1.4227 8.12194 1.31179 8.19588 1.21844 8.28923C1.1251 8.38257 1.05116 8.49348 1.00089 8.61555C0.95062 8.73761 0.925019 8.86842 0.92556 9.00043C0.925019 9.13244 0.95062 9.26326 1.00089 9.38532C1.05116 9.50739 1.1251 9.61829 1.21844 9.71164C1.31179 9.80499 1.4227 9.87893 1.54476 9.9292C1.66683 9.97947 1.79764 10.0051 1.92965 10.0045L8.0037 9.99745L7.99663 16.0715C7.99609 16.2035 8.02169 16.3343 8.07196 16.4564C8.12222 16.5785 8.19617 16.6894 8.28951 16.7827C8.38286 16.8761 8.49376 16.95 8.61583 17.0003C8.7379 17.0505 8.86871 17.0761 9.00072 17.0756C9.13273 17.0761 9.26354 17.0505 9.38561 17.0003C9.50767 16.95 9.61858 16.8761 9.71193 16.7827C9.80527 16.6894 9.87921 16.5785 9.92948 16.4564C9.97975 16.3343 10.0053 16.2035 10.0048 16.0715L9.99774 9.99745Z" fill="black"/>
</svg>
