<svg width="32" height="37" viewBox="0 0 32 37" fill="none" xmlns="http://www.w3.org/2000/svg">
<path d="M4.57143 2.28577C2.05 2.28577 0 4.33577 0 6.8572V29.7143C0 32.2358 2.05 34.2858 4.57143 34.2858H27.4286C29.95 34.2858 32 32.2358 32 29.7143V6.8572C32 4.33577 29.95 2.28577 27.4286 2.28577H4.57143ZM25.7929 8.28577L18.3786 16.7572L27.1 28.2858H20.2714L14.9286 21.2929L8.80714 28.2858H5.41429L13.3429 19.2215L4.97857 8.28577H11.9786L16.8143 14.6786L22.4 8.28577H25.7929ZM23.0929 26.2572L10.9571 10.2072H8.93571L21.2071 26.2572H23.0857H23.0929Z" fill="white"/>
</svg>
