<svg width="32" height="32" viewBox="0 0 32 32" fill="none" xmlns="http://www.w3.org/2000/svg">
<g clip-path="url(#clip0_607_46)" filter="url(#filter0_d_607_46)">
<path d="M28 12C28 5.37262 22.6274 0 16 0C9.37262 0 4 5.37262 4 12C4 17.9895 8.38825 22.954 14.125 23.8542V15.4688H11.0781V12H14.125V9.35625C14.125 6.34875 15.9166 4.6875 18.6576 4.6875C19.9705 4.6875 21.3438 4.92188 21.3438 4.92188V7.875H19.8306C18.3399 7.875 17.875 8.80003 17.875 9.74906V12H21.2031L20.6711 15.4688H17.875V23.8542C23.6117 22.954 28 17.9896 28 12Z" fill="#1877F2"/>
<path d="M20.6711 15.4688L21.2031 12H17.875V9.74906C17.875 8.79994 18.3399 7.875 19.8306 7.875H21.3438V4.92188C21.3438 4.92188 19.9705 4.6875 18.6575 4.6875C15.9166 4.6875 14.125 6.34875 14.125 9.35625V12H11.0781V15.4688H14.125V23.8542C14.7453 23.9514 15.3722 24.0002 16 24C16.6278 24.0002 17.2547 23.9514 17.875 23.8542V15.4688H20.6711Z" fill="white"/>
</g>
<defs>
<filter id="filter0_d_607_46" x="0" y="0" width="32" height="32" filterUnits="userSpaceOnUse" color-interpolation-filters="sRGB">
<feFlood flood-opacity="0" result="BackgroundImageFix"/>
<feColorMatrix in="SourceAlpha" type="matrix" values="0 0 0 0 0 0 0 0 0 0 0 0 0 0 0 0 0 0 127 0" result="hardAlpha"/>
<feOffset dy="4"/>
<feGaussianBlur stdDeviation="2"/>
<feComposite in2="hardAlpha" operator="out"/>
<feColorMatrix type="matrix" values="0 0 0 0 0 0 0 0 0 0 0 0 0 0 0 0 0 0 0.25 0"/>
<feBlend mode="normal" in2="BackgroundImageFix" result="effect1_dropShadow_607_46"/>
<feBlend mode="normal" in="SourceGraphic" in2="effect1_dropShadow_607_46" result="shape"/>
</filter>
<clipPath id="clip0_607_46">
<rect width="24" height="24" fill="white" transform="translate(4)"/>
</clipPath>
</defs>
</svg>
