<svg width="50" height="50" viewBox="0 0 50 50" fill="none" xmlns="http://www.w3.org/2000/svg">
<g id="favorite Button">
<rect id="Rectangle 2" width="50" height="50" rx="25" fill="black"/>
<g id="Vector">
<path d="M25.1442 15.916C25.1442 15.916 24.5243 16.4312 23.8829 17.3491C23.1101 18.4549 22.3062 20.1451 22.5179 22.2227" fill="black"/>
<path d="M25.1442 15.916C25.1442 15.916 24.5243 16.4312 23.8829 17.3491M22.5179 22.2227C22.3062 20.1451 23.1101 18.4549 23.8829 17.3491M23.8829 17.3491C24.627 16.2879 25.5508 15.4665 26.4956 14.8416M26.4956 14.8416C28.159 13.7413 29.8876 13.25 30.8156 13.1319C31.9004 13.0888 32.9827 13.2662 33.9971 13.6533C35.0114 14.0405 35.9367 14.6293 36.7169 15.3843C40.091 18.6908 40.5864 24.9255 37.5367 28.6059C34.4869 32.2863 29.4868 33.9171 26.41 37.6605C25.9115 38.2561 25.4865 38.9094 25.1441 39.6065C24.8033 38.9096 24.3799 38.2562 23.8829 37.6605C20.8016 33.9171 15.8326 32.3223 12.7514 28.6059C9.67009 24.8895 10.1973 18.6953 13.5714 15.3843C15.379 13.2221 19.5132 10.4247 26.4956 14.8416Z" stroke="white" stroke-width="2.7969" stroke-linecap="round" stroke-linejoin="round"/>
</g>
</g>
</svg>
