<svg width="262" height="44" viewBox="0 0 262 44" fill="none" xmlns="http://www.w3.org/2000/svg">
<path d="M25.0339 17.652H20.2527C20.1163 16.8679 19.8649 16.1733 19.4984 15.5682C19.1319 14.9545 18.676 14.4347 18.1305 14.0085C17.5851 13.5824 16.9629 13.2628 16.264 13.0497C15.5737 12.8281 14.8279 12.7173 14.0268 12.7173C12.6035 12.7173 11.3422 13.0753 10.2427 13.7912C9.14329 14.4986 8.28249 15.5384 7.66033 16.9105C7.03817 18.2741 6.7271 19.9403 6.7271 21.9091C6.7271 23.9119 7.03817 25.5994 7.66033 26.9716C8.29102 28.3352 9.15181 29.3665 10.2427 30.0653C11.3422 30.7557 12.5993 31.1009 14.014 31.1009C14.7981 31.1009 15.5311 30.9986 16.2129 30.794C16.9032 30.581 17.5211 30.2699 18.0666 29.8608C18.6206 29.4517 19.0851 28.9489 19.4601 28.3523C19.8436 27.7557 20.1078 27.0739 20.2527 26.3068L25.0339 26.3324C24.8549 27.5767 24.4672 28.7443 23.8706 29.8352C23.2825 30.9261 22.5112 31.8892 21.5566 32.7244C20.6021 33.5511 19.4856 34.1989 18.2072 34.6676C16.9288 35.1278 15.5098 35.358 13.9501 35.358C11.649 35.358 9.59499 34.8253 7.78818 33.7599C5.98136 32.6946 4.55806 31.1562 3.51829 29.1449C2.47852 27.1335 1.95863 24.7216 1.95863 21.9091C1.95863 19.0881 2.48278 16.6761 3.53107 14.6733C4.57937 12.6619 6.00692 11.1236 7.81374 10.0582C9.62056 8.9929 11.666 8.46023 13.9501 8.46023C15.4075 8.46023 16.7626 8.66477 18.0154 9.07386C19.2683 9.48295 20.3848 10.0838 21.3649 10.8764C22.345 11.6605 23.1504 12.6236 23.7811 13.7656C24.4203 14.8991 24.8379 16.1946 25.0339 17.652ZM37.7381 35.3835C35.8205 35.3835 34.1586 34.9616 32.7523 34.1179C31.3461 33.2741 30.2551 32.0937 29.4796 30.5767C28.7125 29.0597 28.329 27.2869 28.329 25.2585C28.329 23.2301 28.7125 21.4531 29.4796 19.9276C30.2551 18.402 31.3461 17.2173 32.7523 16.3736C34.1586 15.5298 35.8205 15.108 37.7381 15.108C39.6557 15.108 41.3176 15.5298 42.7239 16.3736C44.1301 17.2173 45.2168 18.402 45.9838 19.9276C46.7594 21.4531 47.1472 23.2301 47.1472 25.2585C47.1472 27.2869 46.7594 29.0597 45.9838 30.5767C45.2168 32.0937 44.1301 33.2741 42.7239 34.1179C41.3176 34.9616 39.6557 35.3835 37.7381 35.3835ZM37.7637 31.6761C38.8034 31.6761 39.6728 31.3906 40.3716 30.8196C41.0705 30.2401 41.5904 29.4645 41.9313 28.4929C42.2807 27.5213 42.4554 26.4389 42.4554 25.2457C42.4554 24.044 42.2807 22.9574 41.9313 21.9858C41.5904 21.0057 41.0705 20.2259 40.3716 19.6463C39.6728 19.0668 38.8034 18.777 37.7637 18.777C36.6983 18.777 35.812 19.0668 35.1046 19.6463C34.4057 20.2259 33.8816 21.0057 33.5321 21.9858C33.1912 22.9574 33.0208 24.044 33.0208 25.2457C33.0208 26.4389 33.1912 27.5213 33.5321 28.4929C33.8816 29.4645 34.4057 30.2401 35.1046 30.8196C35.812 31.3906 36.6983 31.6761 37.7637 31.6761ZM51.0751 35V15.3636H55.4984V18.7003H55.7285C56.1376 17.5753 56.8152 16.6974 57.7612 16.0668C58.7072 15.4276 59.8365 15.108 61.149 15.108C62.4785 15.108 63.5993 15.4318 64.5112 16.0795C65.4316 16.7187 66.0794 17.5923 66.4544 18.7003H66.6589C67.0936 17.6094 67.8265 16.7401 68.8578 16.0923C69.8976 15.4361 71.1291 15.108 72.5524 15.108C74.3592 15.108 75.8336 15.679 76.9757 16.821C78.1177 17.9631 78.6887 19.6293 78.6887 21.8196V35H74.0481V22.5355C74.0481 21.3168 73.7243 20.4261 73.0765 19.8636C72.4288 19.2926 71.6362 19.0071 70.6987 19.0071C69.5822 19.0071 68.7086 19.3565 68.0779 20.0554C67.4558 20.7457 67.1447 21.6449 67.1447 22.7528V35H62.6064V22.3438C62.6064 21.3295 62.2995 20.5199 61.6859 19.9148C61.0808 19.3097 60.2882 19.0071 59.3081 19.0071C58.6433 19.0071 58.0382 19.1776 57.4927 19.5185C56.9473 19.8509 56.5126 20.3239 56.1887 20.9375C55.8649 21.5426 55.7029 22.25 55.7029 23.0597V35H51.0751ZM83.3837 35V15.3636H87.807V18.7003H88.0371C88.4462 17.5753 89.1238 16.6974 90.0698 16.0668C91.0158 15.4276 92.1451 15.108 93.4576 15.108C94.7871 15.108 95.9078 15.4318 96.8198 16.0795C97.7402 16.7187 98.388 17.5923 98.763 18.7003H98.9675C99.4022 17.6094 100.135 16.7401 101.166 16.0923C102.206 15.4361 103.438 15.108 104.861 15.108C106.668 15.108 108.142 15.679 109.284 16.821C110.426 17.9631 110.997 19.6293 110.997 21.8196V35H106.357V22.5355C106.357 21.3168 106.033 20.4261 105.385 19.8636C104.737 19.2926 103.945 19.0071 103.007 19.0071C101.891 19.0071 101.017 19.3565 100.387 20.0554C99.7644 20.7457 99.4533 21.6449 99.4533 22.7528V35H94.915V22.3438C94.915 21.3295 94.6081 20.5199 93.9945 19.9148C93.3894 19.3097 92.5968 19.0071 91.6167 19.0071C90.9519 19.0071 90.3468 19.1776 89.8013 19.5185C89.2559 19.8509 88.8212 20.3239 88.4973 20.9375C88.1735 21.5426 88.0115 22.25 88.0115 23.0597V35H83.3837ZM128.208 26.7415V15.3636H132.836V35H128.349V31.5099H128.144C127.701 32.6094 126.972 33.5085 125.958 34.2074C124.952 34.9062 123.712 35.2557 122.238 35.2557C120.951 35.2557 119.813 34.9702 118.824 34.3991C117.844 33.8196 117.077 32.9801 116.523 31.8807C115.969 30.7727 115.692 29.4347 115.692 27.8665V15.3636H120.32V27.1506C120.32 28.3949 120.661 29.3835 121.343 30.1165C122.025 30.8494 122.92 31.2159 124.028 31.2159C124.709 31.2159 125.37 31.0497 126.009 30.7173C126.648 30.3849 127.172 29.8906 127.581 29.2344C127.999 28.5696 128.208 27.7386 128.208 26.7415ZM142.222 23.4943V35H137.595V15.3636H142.018V18.7003H142.248C142.7 17.6009 143.42 16.7273 144.409 16.0795C145.406 15.4318 146.637 15.108 148.103 15.108C149.458 15.108 150.639 15.3977 151.644 15.9773C152.659 16.5568 153.443 17.3963 153.997 18.4957C154.559 19.5952 154.836 20.929 154.828 22.4972V35H150.2V23.2131C150.2 21.9006 149.859 20.8736 149.177 20.1321C148.504 19.3906 147.57 19.0199 146.377 19.0199C145.568 19.0199 144.847 19.1989 144.217 19.5568C143.595 19.9062 143.105 20.4134 142.747 21.0781C142.397 21.7429 142.222 22.5483 142.222 23.4943ZM159.532 35V15.3636H164.16V35H159.532ZM161.859 12.5767C161.126 12.5767 160.495 12.3338 159.967 11.848C159.438 11.3537 159.174 10.7614 159.174 10.071C159.174 9.37216 159.438 8.77983 159.967 8.29403C160.495 7.79971 161.126 7.55256 161.859 7.55256C162.6 7.55256 163.231 7.79971 163.751 8.29403C164.279 8.77983 164.544 9.37216 164.544 10.071C164.544 10.7614 164.279 11.3537 163.751 11.848C163.231 12.3338 162.6 12.5767 161.859 12.5767ZM178.724 15.3636V18.9432H167.436V15.3636H178.724ZM170.223 10.6591H174.851V29.0938C174.851 29.7159 174.944 30.1932 175.132 30.5256C175.328 30.8494 175.584 31.071 175.899 31.1903C176.214 31.3097 176.564 31.3693 176.947 31.3693C177.237 31.3693 177.501 31.348 177.74 31.3054C177.987 31.2628 178.175 31.2244 178.302 31.1903L179.082 34.8082C178.835 34.8935 178.481 34.9872 178.021 35.0895C177.569 35.1918 177.015 35.2514 176.359 35.2685C175.2 35.3026 174.156 35.1278 173.227 34.7443C172.298 34.3523 171.561 33.7472 171.015 32.929C170.479 32.1108 170.214 31.0881 170.223 29.8608V10.6591ZM185.471 42.3636C184.84 42.3636 184.257 42.3125 183.72 42.2102C183.191 42.1165 182.769 42.0057 182.454 41.8778L183.528 38.2727C184.201 38.4688 184.802 38.5625 185.33 38.554C185.859 38.5455 186.323 38.3793 186.724 38.0554C187.133 37.7401 187.478 37.2116 187.759 36.4702L188.156 35.4091L181.035 15.3636H185.944L190.47 30.1932H190.674L195.213 15.3636H200.134L192.272 37.3778C191.906 38.4176 191.42 39.3082 190.815 40.0497C190.21 40.7997 189.468 41.3707 188.59 41.7628C187.721 42.1634 186.681 42.3636 185.471 42.3636Z" fill="black"/>
<path d="M219.672 24.8923L235.555 32.8636C238.253 34.1979 241.225 34.1979 243.924 32.8636L259.806 24.8923M219.672 33.0281L235.555 40.9992C238.253 42.3335 241.225 42.3335 243.924 40.9992L259.806 33.0281M256.443 8.58453L243.323 2.64275C240.995 1.59174 238.469 1.59174 236.141 2.64275L223.021 8.58453C222.225 8.94792 221.534 9.63107 221.045 10.5389C220.556 11.4467 220.294 12.5339 220.294 13.6488C220.294 14.7637 220.556 15.8507 221.045 16.7585C221.534 17.6663 222.225 18.3497 223.021 18.7131L235.976 24.5816C238.393 25.6786 241.017 25.6786 243.433 24.5816L256.388 18.7131C257.186 18.3573 257.881 17.6806 258.375 16.7775C258.868 15.8743 259.137 14.7899 259.143 13.6749C259.149 12.56 258.893 11.4701 258.409 10.5576C257.925 9.64514 257.237 8.95546 256.443 8.58453Z" stroke="black" stroke-width="2.05756" stroke-linecap="round" stroke-linejoin="round"/>
</svg>
