<svg width="20" height="19" viewBox="0 0 20 19" fill="none" xmlns="http://www.w3.org/2000/svg">
<path d="M18.1402 9.76467C18.1402 9.102 18.0854 8.61842 17.9666 8.11694H10.2451V11.1079H14.7775C14.6861 11.8512 14.1927 12.9706 13.0961 13.7228L13.0807 13.8229L15.5221 15.6764L15.6913 15.693C17.2447 14.287 18.1402 12.2184 18.1402 9.76467" fill="#4285F4"/>
<path d="M10.2433 17.6453C12.4638 17.6453 14.3279 16.9289 15.6895 15.6931L13.0943 13.7229C12.3998 14.1975 11.4678 14.5289 10.2433 14.5289C8.06853 14.5289 6.2227 13.123 5.56472 11.1797L5.46827 11.1877L2.92968 13.1131L2.89648 13.2035C4.24887 15.8363 7.02678 17.6453 10.2433 17.6453Z" fill="#34A853"/>
<path d="M5.56596 11.1798C5.39235 10.6783 5.29187 10.141 5.29187 9.58581C5.29187 9.03056 5.39235 8.49328 5.55683 7.9918L5.55223 7.88499L2.98182 5.92871L2.89772 5.96791C2.34034 7.06045 2.02051 8.28732 2.02051 9.58581C2.02051 10.8843 2.34034 12.1111 2.89772 13.2036L5.56596 11.1798" fill="#FBBC05"/>
<path d="M10.2434 4.64248C11.7876 4.64248 12.8293 5.2962 13.4233 5.8425L15.7443 3.62162C14.3189 2.32313 12.4638 1.52612 10.2434 1.52612C7.0268 1.52612 4.24888 3.33504 2.89648 5.96782L5.5556 7.99171C6.22272 6.04845 8.06856 4.64248 10.2434 4.64248" fill="#EB4335"/>
</svg>
