<svg width="65" height="65" viewBox="0 0 65 65" fill="none" xmlns="http://www.w3.org/2000/svg">
<path d="M32.4998 10.8333C44.4463 10.8333 54.1665 20.5535 54.1665 32.5C54.1665 44.4465 44.4463 54.1667 32.4998 54.1667C20.5534 54.1667 10.8332 44.4465 10.8332 32.5C10.8332 20.5535 20.5534 10.8333 32.4998 10.8333ZM32.4998 5.41667C17.5417 5.41667 5.4165 17.5419 5.4165 32.5C5.4165 47.4581 17.5417 59.5833 32.4998 59.5833C47.458 59.5833 59.5832 47.4581 59.5832 32.5C59.5832 17.5419 47.458 5.41667 32.4998 5.41667ZM46.0415 29.7917H35.2082V18.9583H29.7915V29.7917H18.9582V35.2083H29.7915V46.0417H35.2082V35.2083H46.0415V29.7917Z" fill="black"/>
</svg>
