<svg width="32" height="33" viewBox="0 0 32 33" fill="none" xmlns="http://www.w3.org/2000/svg">
<g id="Group">
<path id="Vector" d="M24.5 0.285767H7.5C3.35786 0.285767 0 3.64363 0 7.78577V24.7858C0 28.9279 3.35786 32.2858 7.5 32.2858H24.5C28.6421 32.2858 32 28.9279 32 24.7858V7.78577C32 3.64363 28.6421 0.285767 24.5 0.285767Z" fill="white"/>
<path id="Vector_2" d="M24.5 0.285767H7.5C3.35786 0.285767 0 3.64363 0 7.78577V24.7858C0 28.9279 3.35786 32.2858 7.5 32.2858H24.5C28.6421 32.2858 32 28.9279 32 24.7858V7.78577C32 3.64363 28.6421 0.285767 24.5 0.285767Z" fill="white"/>
<path id="Vector_3" d="M16.0011 3.78577C12.6064 3.78577 12.1803 3.80064 10.847 3.86127C9.51625 3.92227 8.60787 4.13289 7.81313 4.44202C6.99088 4.76127 6.2935 5.18839 5.59875 5.88339C4.90338 6.57827 4.47625 7.27564 4.156 8.09752C3.846 8.89252 3.63512 9.80127 3.57525 11.1314C3.51562 12.4648 3.5 12.891 3.5 16.2859C3.5 19.6808 3.515 20.1055 3.5755 21.4388C3.63675 22.7695 3.84738 23.6779 4.15625 24.4726C4.47575 25.2949 4.90288 25.9923 5.59788 26.687C6.2925 27.3824 6.98988 27.8105 7.8115 28.1298C8.60687 28.4389 9.51537 28.6495 10.8459 28.7105C12.1792 28.7711 12.605 28.786 15.9996 28.786C19.3948 28.786 19.8195 28.7711 21.1528 28.7105C22.4835 28.6495 23.3929 28.4389 24.1882 28.1298C25.0101 27.8105 25.7065 27.3824 26.401 26.687C27.0964 25.9923 27.5234 25.2949 27.8438 24.473C28.151 23.6779 28.362 22.7693 28.4245 21.439C28.4844 20.1058 28.5 19.6808 28.5 16.2859C28.5 12.891 28.4844 12.465 28.4245 11.1316C28.362 9.80089 28.151 8.89264 27.8438 8.09789C27.5234 7.27564 27.0964 6.57827 26.401 5.88339C25.7057 5.18814 25.0104 4.76102 24.1875 4.44214C23.3906 4.13289 22.4817 3.92214 21.151 3.86127C19.8176 3.80064 19.3931 3.78577 15.9972 3.78577H16.0011ZM14.8798 6.03839C15.2126 6.03789 15.584 6.03839 16.0011 6.03839C19.3388 6.03839 19.7342 6.05039 21.0522 6.11027C22.271 6.16602 22.9325 6.36964 23.3731 6.54077C23.9565 6.76727 24.3724 7.03814 24.8096 7.47577C25.2471 7.91327 25.5179 8.32989 25.745 8.91327C25.9161 9.35327 26.12 10.0148 26.1755 11.2335C26.2354 12.5513 26.2484 12.947 26.2484 16.283C26.2484 19.619 26.2354 20.0149 26.1755 21.3325C26.1198 22.5513 25.9161 23.2128 25.745 23.6529C25.5185 24.2363 25.2471 24.6516 24.8096 25.0889C24.3721 25.5264 23.9568 25.7971 23.3731 26.0238C22.933 26.1956 22.271 26.3988 21.0522 26.4545C19.7345 26.5144 19.3388 26.5274 16.0011 26.5274C12.6634 26.5274 12.2677 26.5144 10.9501 26.4545C9.73137 26.3983 9.06987 26.1946 8.62887 26.0235C8.04562 25.7969 7.62887 25.5261 7.19137 25.0886C6.75387 24.6511 6.48312 24.2355 6.256 23.6519C6.08488 23.2118 5.881 22.5503 5.8255 21.3315C5.76562 20.0138 5.75362 19.618 5.75362 16.2799C5.75362 12.9419 5.76562 12.5481 5.8255 11.2304C5.88125 10.0116 6.08488 9.35014 6.256 8.90952C6.48263 8.32614 6.75388 7.90952 7.1915 7.47202C7.629 7.03452 8.04562 6.76364 8.629 6.53664C9.06962 6.36477 9.73137 6.16164 10.9501 6.10564C12.1032 6.05352 12.5501 6.03789 14.8798 6.03527V6.03839ZM22.6736 8.11389C21.8455 8.11389 21.1736 8.78514 21.1736 9.61339C21.1736 10.4415 21.8455 11.1134 22.6736 11.1134C23.5018 11.1134 24.1736 10.4415 24.1736 9.61339C24.1736 8.78527 23.5018 8.11339 22.6736 8.11339V8.11389ZM16.0011 9.86652C12.4561 9.86652 9.58187 12.7408 9.58187 16.2859C9.58187 19.831 12.4561 22.7039 16.0011 22.7039C19.5462 22.7039 22.4195 19.831 22.4195 16.2859C22.4195 12.7409 19.546 9.86652 16.0009 9.86652H16.0011ZM16.0011 12.1191C18.3022 12.1191 20.1679 13.9845 20.1679 16.2859C20.1679 18.587 18.3022 20.4526 16.0011 20.4526C13.6999 20.4526 11.8345 18.587 11.8345 16.2859C11.8345 13.9845 13.6999 12.1191 16.0011 12.1191Z" fill="black"/>
</g>
</svg>
