<svg width="32" height="33" viewBox="0 0 32 33" fill="none" xmlns="http://www.w3.org/2000/svg">
<g id="logos:facebook" clip-path="url(#clip0_157_1185)">
<path id="Vector" d="M32 16.2858C32 7.44927 24.8365 0.285767 16 0.285767C7.1635 0.285767 0 7.44927 0 16.2858C0 24.2718 5.851 30.8911 13.5 32.0914V20.9108H9.4375V16.2858H13.5V12.7608C13.5 8.75077 15.8888 6.53577 19.5435 6.53577C21.294 6.53577 23.125 6.84827 23.125 6.84827V10.7858H21.1075C19.1199 10.7858 18.5 12.0191 18.5 13.2845V16.2858H22.9375L22.2281 20.9108H18.5V32.0914C26.149 30.8911 32 24.2719 32 16.2858Z" fill="white"/>
<path id="Vector_2" d="M22.2281 20.9108L22.9375 16.2858H18.5V13.2845C18.5 12.019 19.1199 10.7858 21.1075 10.7858H23.125V6.84827C23.125 6.84827 21.294 6.53577 19.5434 6.53577C15.8888 6.53577 13.5 8.75077 13.5 12.7608V16.2858H9.4375V20.9108H13.5V32.0914C14.327 32.221 15.1629 32.286 16 32.2858C16.8371 32.286 17.673 32.221 18.5 32.0914V20.9108H22.2281Z" fill="black"/>
</g>
<defs>
<clipPath id="clip0_157_1185">
<rect width="32" height="32" fill="white" transform="translate(0 0.285767)"/>
</clipPath>
</defs>
</svg>
