<svg width="21" height="21" viewBox="0 0 21 21" fill="none" xmlns="http://www.w3.org/2000/svg">
<path d="M9.60745 4.095V7.49C9.60655 7.91348 9.48026 8.32721 9.24449 8.67899C9.00873 9.03077 8.67405 9.30484 8.2827 9.46663C8.0229 9.5732 7.7445 9.62704 7.4637 9.625H4.07745C3.51273 9.62269 2.97193 9.39673 2.57343 8.99659C2.17493 8.59645 1.95119 8.05473 1.9512 7.49V4.10375C1.95119 3.53903 2.17493 2.9973 2.57343 2.59716C2.97193 2.19702 3.51273 1.97106 4.07745 1.96875H7.4637C8.02965 1.97221 8.57223 2.19489 8.97745 2.59C9.3768 2.98956 9.60307 3.5301 9.60745 4.095ZM19.0137 4.10375V7.49C19.0126 8.05385 18.7894 8.59456 18.3924 8.995C18.1969 9.19595 17.9629 9.35533 17.7042 9.46359C17.4456 9.57185 17.1678 9.62675 16.8874 9.625H13.5274C12.9615 9.62154 12.4189 9.39886 12.0137 9.00375C11.8157 8.80465 11.659 8.56847 11.5524 8.30873C11.4458 8.04898 11.3914 7.77077 11.3924 7.49V4.10375C11.3913 3.82348 11.4465 3.54584 11.5547 3.28731C11.6629 3.02877 11.822 2.79462 12.0224 2.59875C12.2192 2.39943 12.4535 2.24112 12.7118 2.13298C12.9702 2.02484 13.2474 1.96902 13.5274 1.96875H16.9137C17.4785 1.97332 18.0189 2.19973 18.4183 2.59913C18.8177 2.99854 19.0441 3.53893 19.0487 4.10375H19.0137ZM9.60745 13.5188V16.905C9.60641 17.1854 9.55013 17.4629 9.44182 17.7215C9.3335 17.9801 9.17528 18.2149 8.97619 18.4124C8.7771 18.6098 8.54105 18.7661 8.28153 18.8723C8.02201 18.9785 7.7441 19.0325 7.4637 19.0313H4.07745C3.5136 19.0301 2.97289 18.8069 2.57245 18.41C2.37432 18.2128 2.21736 17.9782 2.11071 17.7199C2.00406 17.4615 1.94984 17.1845 1.9512 16.905V13.5188C1.94984 13.2392 2.00406 12.9622 2.11071 12.7039C2.21736 12.4455 2.37432 12.2109 2.57245 12.0138C2.97058 11.6112 3.5113 11.3817 4.07745 11.375H7.4637C8.03154 11.3773 8.57548 11.6039 8.97701 12.0054C9.37854 12.407 9.60514 12.9509 9.60745 13.5188ZM18.9524 15.2163C18.9502 15.3896 18.8803 15.5552 18.7577 15.6778C18.6351 15.8004 18.4695 15.8702 18.2962 15.8725H15.8287V18.3225C15.8287 18.4965 15.7596 18.6635 15.6365 18.7865C15.5134 18.9096 15.3465 18.9788 15.1724 18.9788C14.9984 18.9788 14.8315 18.9096 14.7084 18.7865C14.5853 18.6635 14.5162 18.4965 14.5162 18.3225V15.8725H12.0662C11.8921 15.8725 11.7252 15.8034 11.6022 15.6803C11.4791 15.5572 11.4099 15.3903 11.4099 15.2163C11.4099 15.0422 11.4791 14.8753 11.6022 14.7522C11.7252 14.6291 11.8921 14.56 12.0662 14.56H14.5162V12.0925C14.5162 11.9185 14.5853 11.7515 14.7084 11.6285C14.8315 11.5054 14.9984 11.4363 15.1724 11.4363C15.3465 11.4363 15.5134 11.5054 15.6365 11.6285C15.7596 11.7515 15.8287 11.9185 15.8287 12.0925V14.56H18.2962C18.4702 14.56 18.6372 14.6291 18.7602 14.7522C18.8833 14.8753 18.9524 15.0422 18.9524 15.2163Z" fill="black"/>
</svg>
