<svg width="25" height="24" viewBox="0 0 25 24" fill="none" xmlns="http://www.w3.org/2000/svg">
<path d="M21.944 9.47301L20.274 19.473C20.1613 20.1686 19.8072 20.8023 19.274 21.263C18.7058 21.716 18.0007 21.9628 17.274 21.963H7.66402C6.96134 21.9568 6.28312 21.7042 5.74766 21.2491C5.21219 20.7941 4.85346 20.1655 4.73402 19.473L3.06402 9.47301C2.97358 8.89603 3.05352 8.30521 3.29402 7.77301C3.53445 7.24355 3.92356 6.79538 4.41402 6.48301L10.894 2.48301C11.3675 2.19097 11.9128 2.03632 12.469 2.03632C13.0253 2.03632 13.5706 2.19097 14.044 2.48301L20.514 6.48301C21.021 6.78301 21.425 7.23001 21.674 7.76301C21.9301 8.29409 22.024 8.88886 21.944 9.47301Z" fill="black"/>
</svg>
