<svg width="25" height="24" viewBox="0 0 25 24" fill="none" xmlns="http://www.w3.org/2000/svg">
<path d="M24.5141 21.6802L24.2344 21.4334C23.441 20.7265 22.7465 19.9157 22.1697 19.0231C21.5397 17.7913 21.1622 16.446 21.0591 15.0663V11.0026C21.0646 8.83546 20.2785 6.74096 18.8485 5.11257C17.4186 3.48419 15.4432 2.43402 13.2936 2.15938V1.0982C13.2936 0.80694 13.1779 0.527608 12.9719 0.321656C12.766 0.115703 12.4866 0 12.1954 0C11.9041 0 11.6248 0.115703 11.4188 0.321656C11.2129 0.527608 11.0972 0.80694 11.0972 1.0982V2.17584C8.96679 2.47027 7.0153 3.52679 5.60414 5.1497C4.19298 6.77261 3.41777 8.85194 3.42211 11.0026V15.0663C3.31908 16.446 2.94151 17.7913 2.31157 19.0231C1.74468 19.9135 1.06134 20.7241 0.279692 21.4334L0 21.6802V24H24.5141V21.6802Z" fill="black"/>
</svg>
